<svg xmlns="http://www.w3.org/2000/svg" xmlns:xlink="http://www.w3.org/1999/xlink" width="650" zoomAndPan="magnify" viewBox="0 0 487.5 89.999999" height="120" preserveAspectRatio="xMidYMid meet" version="1.0"><defs><g/><clipPath id="f21a336067"><path d="M 13 6 L 470 6 L 470 89.953125 L 13 89.953125 Z M 13 6 " clip-rule="nonzero"/></clipPath><clipPath id="a7c7b80c8f"><path d="M 291 12.386719 L 295 12.386719 L 295 63.84375 L 291 63.84375 Z M 291 12.386719 " clip-rule="nonzero"/></clipPath><clipPath id="6023b14ad3"><path d="M 240.898438 36 L 244 36 L 244 40 L 240.898438 40 Z M 240.898438 36 " clip-rule="nonzero"/></clipPath><clipPath id="2090a7d838"><path d="M 0.664062 8 L 63 8 L 63 69 L 0.664062 69 Z M 0.664062 8 " clip-rule="nonzero"/></clipPath><clipPath id="bec98b991e"><rect x="0" width="457" y="0" height="84"/></clipPath></defs><g clip-path="url(#f21a336067)"><g transform="matrix(1, 0, 0, 1, 13, 6)"><g clip-path="url(#bec98b991e)"><g clip-path="url(#a7c7b80c8f)"><path fill="#ff3131" d="M 294.5 12.839844 C 294.015625 12.425781 293.308594 12.238281 292.722656 12.527344 C 292.019531 12.777344 292.015625 13.621094 291.960938 14.238281 C 291.785156 21.996094 292.183594 29.75 292.035156 37.507812 C 291.855469 45.753906 292.0625 54.003906 291.949219 62.25 C 291.488281 64.066406 294.679688 64.613281 294.710938 62.730469 C 294.734375 47.40625 294.738281 32.082031 294.71875 16.761719 C 294.683594 15.449219 294.851562 14.109375 294.5 12.839844 Z M 294.5 12.839844 " fill-opacity="1" fill-rule="nonzero"/></g><path fill="#ff3131" d="M 299.757812 17.808594 C 298.917969 16.972656 297.191406 17.328125 297.277344 18.695312 C 297.148438 31.226562 297.148438 43.757812 297.285156 56.292969 C 297.140625 57.265625 297.761719 58.023438 298.386719 58.6875 C 299.019531 58.164062 300.109375 57.835938 299.972656 56.816406 C 300.058594 46.75 299.90625 36.675781 300.007812 26.613281 C 299.859375 23.679688 300.277344 20.707031 299.757812 17.808594 Z M 299.757812 17.808594 " fill-opacity="1" fill-rule="nonzero"/><path fill="#ff3131" d="M 274.21875 20.664062 C 274.59375 19.242188 272.804688 18.246094 271.804688 19.277344 C 271.246094 19.722656 271.496094 20.558594 271.394531 21.183594 C 271.449219 26.136719 271.519531 31.09375 271.570312 36.050781 C 271.667969 42.632812 271.351562 49.21875 271.535156 55.796875 C 271.632812 57.628906 274.527344 57.109375 274.210938 55.347656 C 274.304688 43.792969 274.308594 32.230469 274.21875 20.664062 Z M 274.21875 20.664062 " fill-opacity="1" fill-rule="nonzero"/><path fill="#ff3131" d="M 320.292969 21.679688 C 320.523438 20.371094 318.859375 19.40625 317.9375 20.441406 C 317.335938 20.972656 317.640625 21.9375 317.523438 22.660156 C 317.554688 31.402344 317.554688 40.148438 317.527344 48.894531 C 317.582031 51.015625 317.410156 53.148438 317.707031 55.253906 C 318.53125 56.179688 320.546875 55.824219 320.339844 54.335938 C 320.359375 43.453125 320.375 32.5625 320.292969 21.679688 Z M 320.292969 21.679688 " fill-opacity="1" fill-rule="nonzero"/><path fill="#ff3131" d="M 287.640625 23.21875 C 286.808594 23.5 286.964844 24.484375 286.90625 25.171875 C 286.972656 33.898438 286.945312 42.625 286.945312 51.351562 C 286.761719 52.265625 287.496094 53.203125 288.453125 53.117188 C 289.34375 53.144531 289.710938 52.113281 289.621094 51.378906 C 289.65625 42.464844 289.648438 33.546875 289.65625 24.640625 C 289.929688 23.519531 288.59375 22.582031 287.640625 23.21875 Z M 287.640625 23.21875 " fill-opacity="1" fill-rule="nonzero"/><path fill="#ff3131" d="M 310.027344 27.664062 C 310.164062 26.714844 309.355469 25.984375 308.414062 26.238281 C 307.738281 26.265625 307.402344 26.96875 307.453125 27.574219 C 307.296875 34.503906 307.15625 41.457031 307.519531 48.386719 C 307.605469 49.875 310.328125 49.296875 310.046875 47.871094 C 310.101562 41.136719 310.117188 34.398438 310.027344 27.664062 Z M 310.027344 27.664062 " fill-opacity="1" fill-rule="nonzero"/><path fill="#ff3131" d="M 268.953125 27.386719 C 268.226562 26.945312 267.40625 27.382812 266.65625 27.480469 C 266.574219 33.632812 266.699219 39.78125 266.585938 45.933594 C 266.632812 46.832031 266.402344 47.898438 267.140625 48.601562 C 268.058594 48.941406 269.4375 48.644531 269.335938 47.414062 C 269.40625 41.636719 269.289062 35.859375 269.40625 30.089844 C 269.355469 29.175781 269.570312 28.144531 268.953125 27.386719 Z M 268.953125 27.386719 " fill-opacity="1" fill-rule="nonzero"/><path fill="#ff3131" d="M 304.949219 30.5625 C 304.933594 29.476562 305.074219 27.652344 303.496094 27.820312 C 302.546875 27.789062 302.199219 28.808594 302.285156 29.597656 C 302.230469 35.214844 302.097656 40.84375 302.320312 46.460938 C 302.273438 48.027344 304.933594 47.984375 304.839844 46.421875 C 305.09375 41.144531 304.898438 35.847656 304.949219 30.5625 Z M 304.949219 30.5625 " fill-opacity="1" fill-rule="nonzero"/><path fill="#ff3131" d="M 259.1875 29.136719 C 259.367188 27.988281 257.746094 27.390625 256.992188 28.144531 C 256.339844 28.539062 256.632812 29.453125 256.519531 30.085938 C 256.492188 35.519531 256.453125 40.953125 256.5625 46.390625 C 256.386719 48.035156 259.410156 48.089844 259.210938 46.367188 C 259.339844 40.628906 259.265625 34.878906 259.1875 29.136719 Z M 259.1875 29.136719 " fill-opacity="1" fill-rule="nonzero"/><path fill="#ff3131" d="M 277.285156 28.757812 C 277.152344 28.859375 276.890625 29.074219 276.761719 29.179688 C 276.5 34.757812 276.613281 40.390625 276.671875 45.972656 C 276.589844 47.53125 279.375 47.472656 279.261719 45.925781 C 279.480469 40.652344 279.351562 35.371094 279.324219 30.101562 C 279.574219 28.953125 278.234375 27.960938 277.285156 28.757812 Z M 277.285156 28.757812 " fill-opacity="1" fill-rule="nonzero"/><path fill="#ff3131" d="M 330.433594 30.605469 C 330.605469 29.425781 328.953125 28.914062 328.222656 29.695312 C 327.609375 30.082031 327.902344 30.941406 327.792969 31.546875 C 327.851562 35.6875 327.71875 39.832031 327.820312 43.976562 C 327.910156 44.542969 327.75 45.300781 328.257812 45.726562 C 328.921875 46.542969 330.582031 46.097656 330.46875 44.941406 C 330.679688 40.164062 330.523438 35.382812 330.433594 30.605469 Z M 330.433594 30.605469 " fill-opacity="1" fill-rule="nonzero"/><path fill="#ff3131" d="M 282.265625 30.289062 L 281.988281 30.496094 C 281.605469 33.300781 281.902344 36.148438 281.820312 38.972656 C 281.878906 40.984375 281.660156 43.027344 282 45.027344 C 282.6875 45.949219 284.449219 45.691406 284.429688 44.402344 C 284.640625 40.113281 284.554688 35.8125 284.515625 31.519531 C 284.726562 30.269531 283.207031 29.425781 282.265625 30.289062 Z M 282.265625 30.289062 " fill-opacity="1" fill-rule="nonzero"/><path fill="#ff3131" d="M 313.71875 30.90625 C 311.652344 31.480469 312.632812 34.011719 312.445312 35.554688 C 312.78125 38.640625 311.738281 41.992188 313.097656 44.890625 C 313.878906 44.617188 315.179688 44.578125 315.101562 43.4375 C 315.203125 39.804688 315.109375 36.167969 315.15625 32.535156 C 315.316406 31.652344 314.535156 30.980469 313.71875 30.90625 Z M 313.71875 30.90625 " fill-opacity="1" fill-rule="nonzero"/><path fill="#ff3131" d="M 251.988281 31.535156 C 251.097656 32.464844 251.484375 33.871094 251.449219 35.019531 C 251.691406 37.949219 251.375 40.894531 251.664062 43.824219 C 252.472656 44.34375 253.972656 44.480469 254.082031 43.214844 C 254.277344 39.695312 254.234375 36.152344 254.1875 32.632812 C 254.3125 31.464844 252.855469 31.070312 251.988281 31.535156 Z M 251.988281 31.535156 " fill-opacity="1" fill-rule="nonzero"/><path fill="#ff3131" d="M 323.808594 32.804688 C 323.179688 32.863281 322.765625 33.464844 322.84375 34.078125 C 322.777344 36.847656 322.726562 39.632812 322.863281 42.410156 C 322.71875 43.847656 325.464844 43.910156 325.390625 42.417969 C 325.542969 39.519531 325.574219 36.597656 325.410156 33.703125 C 325.394531 32.886719 324.433594 32.722656 323.808594 32.804688 Z M 323.808594 32.804688 " fill-opacity="1" fill-rule="nonzero"/><path fill="#ff3131" d="M 263.726562 33.207031 C 262.910156 32.816406 261.671875 33.214844 261.652344 34.230469 C 261.511719 36.742188 261.511719 39.257812 261.65625 41.769531 C 261.753906 42.863281 263.261719 42.441406 264 42.75 C 264.484375 40.199219 264.433594 37.589844 264.355469 35.007812 C 264.261719 34.378906 264.398438 33.546875 263.726562 33.207031 Z M 263.726562 33.207031 " fill-opacity="1" fill-rule="nonzero"/><path fill="#ff3131" d="M 332.929688 34.03125 C 332.847656 36.667969 332.804688 39.316406 332.992188 41.953125 C 333.050781 43.222656 334.488281 42.679688 335.339844 42.824219 C 335.734375 39.925781 335.6875 36.972656 335.472656 34.070312 C 335.566406 32.539062 332.875 32.523438 332.929688 34.03125 Z M 332.929688 34.03125 " fill-opacity="1" fill-rule="nonzero"/><path fill="#ff3131" d="M 246.746094 34.828125 C 245.75 36.21875 246.25 38.292969 246.296875 39.941406 C 246.304688 41.214844 248.550781 41.652344 248.917969 40.410156 C 249.207031 38.808594 249.21875 37.152344 249.046875 35.539062 C 248.878906 34.480469 247.503906 34.367188 246.746094 34.828125 Z M 246.746094 34.828125 " fill-opacity="1" fill-rule="nonzero"/><g clip-path="url(#6023b14ad3)"><path fill="#ff3131" d="M 241.777344 36.253906 C 240.394531 36.929688 240.648438 40.003906 242.53125 39.808594 C 244.75 39.792969 244.097656 35.203125 241.777344 36.253906 Z M 241.777344 36.253906 " fill-opacity="1" fill-rule="nonzero"/></g><path fill="#ff3131" d="M 338.566406 35.960938 C 337.578125 36.988281 337.617188 39.296875 338.769531 40.222656 C 341.796875 41.15625 341.601562 34.378906 338.566406 35.960938 Z M 338.566406 35.960938 " fill-opacity="1" fill-rule="nonzero"/><g clip-path="url(#2090a7d838)"><g fill="#000000" fill-opacity="1"><g transform="translate(3.027217, 68.884854)"><g><path d="M 23.421875 0 L -2.0625 -60.78125 L 13.5625 -60.78125 L 28.875 -20.84375 L 44.203125 -60.78125 L 59.828125 -60.78125 L 34.328125 0 Z M 23.421875 0 "/></g></g></g></g><g fill="#000000" fill-opacity="1"><g transform="translate(58.430254, 68.884854)"><g><path d="M 1.6875 -30.421875 C 1.6875 -39.210938 4.679688 -46.65625 10.671875 -52.75 C 16.671875 -58.84375 23.894531 -61.890625 32.34375 -61.890625 C 40.84375 -61.890625 48.0625 -58.851562 54 -52.78125 C 59.945312 -46.71875 62.921875 -39.265625 62.921875 -30.421875 C 62.921875 -21.535156 59.992188 -14.054688 54.140625 -7.984375 C 48.296875 -1.921875 41.03125 1.109375 32.34375 1.109375 C 23.445312 1.109375 16.113281 -1.894531 10.34375 -7.90625 C 4.570312 -13.925781 1.6875 -21.429688 1.6875 -30.421875 Z M 16.65625 -30.421875 C 16.65625 -27.234375 17.144531 -24.320312 18.125 -21.6875 C 19.101562 -19.0625 20.820312 -16.835938 23.28125 -15.015625 C 25.738281 -13.203125 28.757812 -12.296875 32.34375 -12.296875 C 37.5 -12.296875 41.390625 -14.0625 44.015625 -17.59375 C 46.640625 -21.132812 47.953125 -25.410156 47.953125 -30.421875 C 47.953125 -35.390625 46.613281 -39.648438 43.9375 -43.203125 C 41.269531 -46.765625 37.40625 -48.546875 32.34375 -48.546875 C 27.332031 -48.546875 23.460938 -46.765625 20.734375 -43.203125 C 18.015625 -39.648438 16.65625 -35.390625 16.65625 -30.421875 Z M 16.65625 -30.421875 "/></g></g></g><g fill="#000000" fill-opacity="1"><g transform="translate(123.042597, 68.884854)"><g><path d="M 18.265625 -60.78125 L 18.265625 0 L 4.421875 0 L 4.421875 -60.78125 Z M 18.265625 -60.78125 "/></g></g></g><g fill="#000000" fill-opacity="1"><g transform="translate(143.376668, 68.884854)"><g><path d="M 36.765625 -12.53125 C 38.878906 -12.53125 40.925781 -12.847656 42.90625 -13.484375 C 44.894531 -14.117188 46.359375 -14.734375 47.296875 -15.328125 L 48.703125 -16.28125 L 54.59375 -4.5 C 54.394531 -4.34375 54.125 -4.140625 53.78125 -3.890625 C 53.4375 -3.648438 52.632812 -3.195312 51.375 -2.53125 C 50.125 -1.875 48.785156 -1.300781 47.359375 -0.8125 C 45.941406 -0.320312 44.078125 0.117188 41.765625 0.515625 C 39.460938 0.910156 37.082031 1.109375 34.625 1.109375 C 28.976562 1.109375 23.625 -0.273438 18.5625 -3.046875 C 13.507812 -5.828125 9.429688 -9.648438 6.328125 -14.515625 C 3.234375 -19.378906 1.6875 -24.632812 1.6875 -30.28125 C 1.6875 -34.550781 2.59375 -38.648438 4.40625 -42.578125 C 6.226562 -46.503906 8.648438 -49.867188 11.671875 -52.671875 C 14.691406 -55.472656 18.21875 -57.707031 22.25 -59.375 C 26.28125 -61.050781 30.40625 -61.890625 34.625 -61.890625 C 38.550781 -61.890625 42.171875 -61.421875 45.484375 -60.484375 C 48.804688 -59.546875 51.15625 -58.613281 52.53125 -57.6875 L 54.59375 -56.28125 L 48.703125 -44.5 C 48.359375 -44.789062 47.84375 -45.144531 47.15625 -45.5625 C 46.46875 -45.976562 45.09375 -46.53125 43.03125 -47.21875 C 40.96875 -47.90625 38.878906 -48.25 36.765625 -48.25 C 33.421875 -48.25 30.421875 -47.707031 27.765625 -46.625 C 25.117188 -45.550781 23.019531 -44.128906 21.46875 -42.359375 C 19.925781 -40.585938 18.75 -38.679688 17.9375 -36.640625 C 17.125 -34.609375 16.71875 -32.535156 16.71875 -30.421875 C 16.71875 -25.804688 18.445312 -21.671875 21.90625 -18.015625 C 25.375 -14.359375 30.328125 -12.53125 36.765625 -12.53125 Z M 36.765625 -12.53125 "/></g></g></g><g fill="#000000" fill-opacity="1"><g transform="translate(198.853407, 68.884854)"><g><path d="M 39.1875 -60.78125 L 39.1875 -48.625 L 18.265625 -48.625 L 18.265625 -36.546875 L 38.3125 -36.546875 L 38.3125 -24.390625 L 18.265625 -24.390625 L 18.265625 -12.15625 L 39.1875 -12.15625 L 39.1875 0 L 4.421875 0 L 4.421875 -60.78125 Z M 39.1875 -60.78125 "/></g></g></g><g fill="#000000" fill-opacity="1"><g transform="translate(343.52864, 67.158071)"><g><path d="M 54.671875 0 L 51.796875 -36.03125 L 51.421875 -36.03125 L 38.96875 -0.375 L 30.71875 -0.375 L 18.265625 -36.03125 L 17.90625 -36.03125 L 15.03125 0 L 1.171875 0 L 6.625 -60.78125 L 21.359375 -60.78125 L 34.84375 -25.71875 L 48.328125 -60.78125 L 63.0625 -60.78125 L 68.515625 0 Z M 54.671875 0 "/></g></g></g><g fill="#000000" fill-opacity="1"><g transform="translate(413.224505, 67.158071)"><g><path d="M 39.1875 -60.78125 L 39.1875 -48.625 L 18.265625 -48.625 L 18.265625 -36.546875 L 38.3125 -36.546875 L 38.3125 -24.390625 L 18.265625 -24.390625 L 18.265625 -12.15625 L 39.1875 -12.15625 L 39.1875 0 L 4.421875 0 L 4.421875 -60.78125 Z M 39.1875 -60.78125 "/></g></g></g></g></g></g></svg>